<svg id="Layer_1" data-name="Layer 1" xmlns="http://www.w3.org/2000/svg" viewBox="0 0 220.85 28.05"><defs><style>.cls-1{fill:#fff;}.cls-2{opacity:0.9;}</style></defs><path class="cls-1" d="M4.54,6.9A12,12,0,0,0,2.72,9.3L2,8.9A1,1,0,0,0,.87,8.14a1,1,0,1,0,.24,2,.7.7,0,0,0,.3-.09l.75.39a12.06,12.06,0,0,0-.88,2.87l1.24.22A10.85,10.85,0,0,1,5.46,7.78Z"/><path class="cls-1" d="M13.57,3.12l-.84,0-.12-1A1.18,1.18,0,0,0,13,1a1.16,1.16,0,0,0-1.31-1,1.17,1.17,0,0,0-.35,2.23l.11,1A12,12,0,0,0,8.1,4.33l.54,1.13a11.46,11.46,0,0,1,4.93-1.11A11.67,11.67,0,0,1,16,4.62l.27-1.22A12.89,12.89,0,0,0,13.57,3.12Z"/><path class="cls-1" d="M24.43,7.29a1,1,0,1,0-.24-2,1,1,0,0,0-.88,1l-.69.6a12.83,12.83,0,0,0-2.33-1.87l-.65,1a11.13,11.13,0,0,1,4.21,4.81L25,10.4a12,12,0,0,0-1.55-2.54l.66-.58A.74.74,0,0,0,24.43,7.29Z"/><path class="cls-1" d="M12.67,19.9c-.64,0-1.27.06-1.91.06a26,26,0,0,1-4.08-.3,15.36,15.36,0,0,1-2.1-.49,10.19,10.19,0,0,0,18.65-2.29,17,17,0,0,1-4,1.86A26,26,0,0,1,12.67,19.9Z"/><path class="cls-1" d="M13.57,5.61a9.9,9.9,0,0,0-10,9.78,9.58,9.58,0,0,0,.22,2.07c1.11.79,4.46,1.46,8.81,1.2,4.73-.28,8.7-1.57,11-3.56,0-.31,0-.63-.07-.95A9.94,9.94,0,0,0,13.57,5.61ZM10,16.32a3,3,0,1,1,3-3A3,3,0,0,1,10,16.32Zm7.79-1.5A2.23,2.23,0,1,1,20,12.59,2.21,2.21,0,0,1,17.8,14.82Z"/><path class="cls-1" d="M39.88,8.68a4.59,4.59,0,0,0-2.26-.39,1.42,1.42,0,0,0-1.39,1.64v1.43H39.9v2.83H36.23v9H33.05v-9H30.84V11.38h2.21V9.92c0-2.78,1.48-4.57,4.23-4.57a6.64,6.64,0,0,1,2.62.5Z"/><path class="cls-1" d="M47.64,14.17a4.3,4.3,0,0,0-.86-.08,2.36,2.36,0,0,0-2.49,2.66v6.43H41.1V11.38h3.07v1.29a3.73,3.73,0,0,1,3.32-1.61,2.9,2.9,0,0,1,1.8.56Z"/><path class="cls-1" d="M60.24,17.26c0,.35,0,.8-.05,1.07H51.81a2.86,2.86,0,0,0,3,2.45,4.78,4.78,0,0,0,3-1.12l1.85,2a7.18,7.18,0,0,1-5,1.79,5.83,5.83,0,0,1-6.12-6.18c0-3.7,2.43-6.23,6-6.23S60.22,13.57,60.24,17.26Zm-8.41-1.11h5.23a2.63,2.63,0,0,0-5.23,0Z"/><path class="cls-1" d="M72.83,17.26a8.6,8.6,0,0,1-.06,1.07H64.4a2.86,2.86,0,0,0,3,2.45,4.73,4.73,0,0,0,3-1.12l1.86,2a7.2,7.2,0,0,1-5,1.79,5.83,5.83,0,0,1-6.13-6.18c0-3.7,2.44-6.23,6-6.23S72.81,13.57,72.83,17.26Zm-8.41-1.11h5.23a2.63,2.63,0,0,0-5.23,0Z"/><path class="cls-1" d="M86.56,17.26c0,3.54-2.46,6.22-5.71,6.22a4.28,4.28,0,0,1-3.47-1.54v6.11H74.22V11.38h3.1v1.31a4.29,4.29,0,0,1,3.53-1.61C84.1,11.06,86.56,13.72,86.56,17.26Zm-9.35,0a3.05,3.05,0,1,0,6.09,0,3,3,0,0,0-3-3.26A3.06,3.06,0,0,0,77.21,17.26Z"/><path class="cls-1" d="M91.67,7.5a2,2,0,1,1-2-2A2,2,0,0,1,91.67,7.5Zm-.43,15.66H88.06V11.36h3.18Z"/><path class="cls-1" d="M96.54,15.57,101,11.38h3.9l-5.74,5.54,5.75,6.24H101L96.5,18.38v4.78H93.32V5.63H96.5v9.94Z"/><g class="cls-2"><path class="cls-1" d="M117,13.24l-1.17,1.22a4.4,4.4,0,0,0-3.14-1.33,4.06,4.06,0,0,0-4.06,4.28,4.06,4.06,0,0,0,4.06,4.29,4.59,4.59,0,0,0,3.18-1.35L117,21.59a5.6,5.6,0,0,1-4.27,1.81,5.76,5.76,0,0,1-6-6,5.75,5.75,0,0,1,6-6A5.55,5.55,0,0,1,117,13.24Z"/><path class="cls-1" d="M129.77,17.41a6.06,6.06,0,0,1-12.11,0,6.06,6.06,0,0,1,12.11,0Zm-10.26,0a4.2,4.2,0,1,0,8.4,0,4.2,4.2,0,1,0-8.4,0Z"/><path class="cls-1" d="M141.64,16v7.14h-1.82V16.63c0-2.19-1.21-3.48-3.31-3.48A3.4,3.4,0,0,0,133,16.68v6.49h-1.82V11.66H133V13.3a4.53,4.53,0,0,1,3.88-1.87A4.45,4.45,0,0,1,141.64,16Z"/><path class="cls-1" d="M150.63,13.3h-5v5.81c0,1.8.94,2.59,2.28,2.59a4.17,4.17,0,0,0,2.42-.82l.85,1.37a5.52,5.52,0,0,1-3.41,1.15c-2.48,0-4-1.36-4-4.26V8h1.81v3.66h5Z"/><path class="cls-1" d="M159.91,11.82l-.44,1.78a4.41,4.41,0,0,0-2-.46c-1.8,0-3.09,1.41-3.09,3.58v6.45h-1.81V11.66h1.8v1.61a4,4,0,0,1,3.42-1.84A4.94,4.94,0,0,1,159.91,11.82Z"/><path class="cls-1" d="M163.66,7.57a1.27,1.27,0,0,1-1.29,1.28,1.28,1.28,0,0,1,0-2.56A1.27,1.27,0,0,1,163.66,7.57Zm-.38,15.6h-1.82V11.66h1.82Z"/><path class="cls-1" d="M177.93,17.41a5.75,5.75,0,0,1-5.75,6A5.07,5.07,0,0,1,168,21.46v1.71h-1.83V5.67H168v7.69a5.06,5.06,0,0,1,4.19-1.93A5.74,5.74,0,0,1,177.93,17.41Zm-10.07,0a4.11,4.11,0,1,0,8.21,0,4.11,4.11,0,1,0-8.21,0Z"/><path class="cls-1" d="M189.86,18.37c0,3.41-2.45,5-5.22,5s-5.23-1.62-5.23-5V11.66h1.81V18.2a3.41,3.41,0,1,0,6.82,0V11.66h1.82Z"/><path class="cls-1" d="M199,13.3h-5v5.81c0,1.8.95,2.59,2.29,2.59a4.14,4.14,0,0,0,2.41-.82l.85,1.37a5.52,5.52,0,0,1-3.41,1.15c-2.48,0-3.95-1.36-3.95-4.26V8h1.81v3.66h5Z"/><path class="cls-1" d="M212.07,17.41a6.06,6.06,0,0,1-12.11,0,6.06,6.06,0,0,1,12.11,0Zm-10.27,0a4.21,4.21,0,1,0,8.41,0,4.21,4.21,0,1,0-8.41,0Z"/><path class="cls-1" d="M220.85,12.05l-.44,1.78a4.48,4.48,0,0,0-2-.46c-1.8,0-3.09,1.41-3.09,3.59V23.4h-1.81V11.89h1.8V13.5a4,4,0,0,1,3.41-1.84A5,5,0,0,1,220.85,12.05Z"/></g></svg>